<svg width="25" height="25" viewBox="0 0 25 25" fill="none" xmlns="http://www.w3.org/2000/svg">
<path d="M9.67706 8.4583L13.7187 12.5L9.67706 16.5416C9.58062 16.6381 9.50412 16.7526 9.45193 16.8786C9.39974 17.0046 9.37287 17.1396 9.37287 17.276C9.37287 17.4124 9.39974 17.5474 9.45193 17.6735C9.50412 17.7995 9.58062 17.9139 9.67706 18.0104C9.7735 18.1068 9.88799 18.1833 10.014 18.2355C10.14 18.2877 10.275 18.3146 10.4114 18.3146C10.5478 18.3146 10.6829 18.2877 10.8089 18.2355C10.9349 18.1833 11.0494 18.1068 11.1458 18.0104L15.9271 13.2291C16.0236 13.1328 16.1002 13.0183 16.1525 12.8923C16.2048 12.7663 16.2317 12.6312 16.2317 12.4948C16.2317 12.3583 16.2048 12.2233 16.1525 12.0972C16.1002 11.9712 16.0236 11.8568 15.9271 11.7604L11.1458 6.97914C10.7396 6.57289 10.0833 6.57289 9.67706 6.97914C9.28123 7.38539 9.27081 8.05205 9.67706 8.4583Z" fill="#6888E4"/>
</svg>
