<svg width="29" height="29" viewBox="0 0 29 29" fill="none" xmlns="http://www.w3.org/2000/svg">
<g clip-path="url(#clip0_10_126)">
<path d="M15.8592 1.35938V3.625H17.6445C18.1955 3.625 18.7375 3.77 19.216 4.04369L21.5541 5.37769C21.623 5.41756 21.6991 5.4375 21.7788 5.4375H25.828C26.1885 5.4375 26.5342 5.58072 26.7892 5.83565C27.0441 6.09058 27.1873 6.43635 27.1873 6.79688C27.1873 7.1574 27.0441 7.50317 26.7892 7.7581C26.5342 8.01303 26.1885 8.15625 25.828 8.15625H25.054L28.8802 16.6605C28.9933 16.9121 29.0271 17.1921 28.9773 17.4634C28.9274 17.7347 28.7962 17.9844 28.6011 18.1794L27.6405 17.2188L28.5993 18.1812L28.5975 18.1848L28.5938 18.1884L28.583 18.1993L28.5721 18.2084L28.554 18.2265L28.4724 18.299C28.0918 18.618 27.6731 18.8917 27.229 19.1146C26.3826 19.5387 25.1573 19.9375 23.5623 19.9375C22.2927 19.9525 21.0371 19.6707 19.8956 19.1146C19.451 18.8918 19.0338 18.6181 18.6523 18.299L18.5707 18.2265L18.5417 18.1993L18.5308 18.1884L18.5236 18.1812V18.1794C18.3285 17.9844 18.1972 17.7347 18.1474 17.4634C18.0975 17.1921 18.1314 16.9121 18.2445 16.6605L22.0725 8.15625H21.7788C21.226 8.15625 20.6841 8.01306 20.2056 7.73756L17.8675 6.40356C17.7992 6.36401 17.7216 6.34337 17.6427 6.34375H15.8592V23.5625H20.3905C20.751 23.5625 21.0967 23.7057 21.3517 23.9607C21.6066 24.2156 21.7498 24.5613 21.7498 24.9219C21.7498 25.2824 21.6066 25.6282 21.3517 25.8831C21.0967 26.138 20.751 26.2812 20.3905 26.2812H8.60921C8.24868 26.2812 7.90292 26.138 7.64798 25.8831C7.39305 25.6282 7.24983 25.2824 7.24983 24.9219C7.24983 24.5613 7.39305 24.2156 7.64798 23.9607C7.90292 23.7057 8.24868 23.5625 8.60921 23.5625H13.1405V6.34375H11.357C11.2781 6.34337 11.2005 6.36401 11.1322 6.40356L8.79589 7.73938C8.31558 8.01125 7.77364 8.15625 7.22083 8.15625H6.92721L10.7552 16.6605C10.8683 16.9121 10.9021 17.1921 10.8523 17.4634C10.8024 17.7347 10.6712 17.9844 10.4761 18.1794L9.51546 17.2188L10.4743 18.1812L10.4725 18.1848L10.4688 18.1884L10.458 18.1993L10.429 18.2265L10.3474 18.299C9.96677 18.618 9.54808 18.8917 9.10402 19.1146C8.25758 19.5387 7.03233 19.9375 5.43733 19.9375C4.1677 19.9525 2.91212 19.6707 1.77064 19.1146C1.32601 18.8918 0.908754 18.6181 0.527268 18.299L0.445706 18.2265L0.416706 18.1993L0.405831 18.1884L0.398581 18.1812V18.1794C0.20345 17.9844 0.0722449 17.7347 0.0223896 17.4634C-0.0274656 17.1921 0.00638842 16.9121 0.119456 16.6605L3.94746 8.15625H3.17171C2.81118 8.15625 2.46542 8.01303 2.21048 7.7581C1.95555 7.50317 1.81233 7.1574 1.81233 6.79688C1.81233 6.43635 1.95555 6.09058 2.21048 5.83565C2.46542 5.58072 2.81118 5.4375 3.17171 5.4375H7.22083C7.3003 5.43786 7.37846 5.41722 7.44739 5.37769L9.78189 4.04187C10.2622 3.77 10.8041 3.625 11.357 3.625H13.1405V1.35938C13.1405 0.998846 13.2837 0.653084 13.5386 0.398152C13.7935 0.143219 14.1393 0 14.4998 0C14.8604 0 15.2061 0.143219 15.4611 0.398152C15.716 0.653084 15.8592 0.998846 15.8592 1.35938ZM21.197 16.7239C21.7136 16.9686 22.4984 17.2188 23.5623 17.2188C24.6263 17.2188 25.4111 16.9686 25.9276 16.7239L23.5623 11.4677L21.197 16.7239ZM3.07202 16.7239C3.58858 16.9686 4.37339 17.2188 5.43733 17.2188C6.50127 17.2188 7.28608 16.9686 7.80264 16.7239L5.43733 11.4677L3.07202 16.7239Z" fill="#6888E4"/>
</g>
<defs>
<clipPath id="clip0_10_126">
<rect width="29" height="29" fill="white"/>
</clipPath>
</defs>
</svg>
