<svg width="29" height="29" viewBox="0 0 29 29" fill="none" xmlns="http://www.w3.org/2000/svg">
<path d="M5.45195 22.2H23.548C24.9147 20.4948 25.7718 18.4381 26.0205 16.267C26.2692 14.0959 25.8994 11.8987 24.9538 9.92865C24.0082 7.95855 22.5251 6.29573 20.6756 5.1318C18.826 3.96787 16.6853 3.3502 14.5 3.34998C12.3147 3.3502 10.1739 3.96787 8.32434 5.1318C6.4748 6.29573 4.99175 7.95855 4.04611 9.92865C3.10046 11.8987 2.73069 14.0959 2.97942 16.267C3.22815 18.4381 4.08525 20.4948 5.45195 22.2ZM14.5 4.79998C15.2975 4.79998 15.95 5.45248 15.95 6.24998C15.95 7.04748 15.2975 7.69998 14.5 7.69998C13.7025 7.69998 13.05 7.04748 13.05 6.24998C13.05 5.45248 13.7025 4.79998 14.5 4.79998ZM8.69995 7.69998C9.49745 7.69998 10.15 8.35248 10.15 9.14998C10.15 9.94748 9.49745 10.6 8.69995 10.6C7.90245 10.6 7.24995 9.94748 7.24995 9.14998C7.24995 8.35248 7.90245 7.69998 8.69995 7.69998ZM20.3 7.69998C21.0975 7.69998 21.75 8.35248 21.75 9.14998C21.75 9.94748 21.0975 10.6 20.3 10.6C19.5025 10.6 18.85 9.94748 18.85 9.14998C18.85 8.35248 19.5025 7.69998 20.3 7.69998ZM12.5135 15.7475L17.4 9.14998V17.85C17.4 19.445 16.095 20.75 14.5 20.75C12.905 20.75 11.6 19.445 11.6 17.85C11.6 17.0235 11.948 16.284 12.5135 15.7475ZM5.79995 13.5C6.59745 13.5 7.24995 14.1525 7.24995 14.95C7.24995 15.7475 6.59745 16.4 5.79995 16.4C5.00245 16.4 4.34995 15.7475 4.34995 14.95C4.34995 14.1525 5.00245 13.5 5.79995 13.5ZM23.2 13.5C23.9975 13.5 24.65 14.1525 24.65 14.95C24.65 15.7475 23.9975 16.4 23.2 16.4C22.4025 16.4 21.75 15.7475 21.75 14.95C21.75 14.1525 22.4025 13.5 23.2 13.5ZM15.95 17.85C15.95 17.0525 15.2975 16.4 14.5 16.4C13.7025 16.4 13.05 17.0525 13.05 17.85C13.05 18.6475 13.7025 19.3 14.5 19.3C15.2975 19.3 15.95 18.6475 15.95 17.85Z" fill="white"/>
</svg>
