<svg width="29" height="29" viewBox="0 0 29 29" fill="none" xmlns="http://www.w3.org/2000/svg">
<g clip-path="url(#clip0_10_135)">
<path d="M24.2422 12.6875H16.3125C15.5914 12.6875 14.8999 12.4011 14.3901 11.8912C13.8802 11.3813 13.5938 10.6898 13.5938 9.96875V2.03906C13.5938 1.97897 13.5699 1.92135 13.5274 1.87886C13.4849 1.83637 13.4273 1.8125 13.3672 1.8125H8.15625C7.19484 1.8125 6.27281 2.19442 5.59299 2.87424C4.91317 3.55406 4.53125 4.47609 4.53125 5.4375V23.5625C4.53125 24.5239 4.91317 25.4459 5.59299 26.1258C6.27281 26.8056 7.19484 27.1875 8.15625 27.1875H20.8438C21.8052 27.1875 22.7272 26.8056 23.407 26.1258C24.0868 25.4459 24.4688 24.5239 24.4688 23.5625V12.9141C24.4688 12.854 24.4449 12.7963 24.4024 12.7539C24.3599 12.7114 24.3023 12.6875 24.2422 12.6875ZM19.0312 21.75H9.96875C9.7284 21.75 9.49789 21.6545 9.32793 21.4846C9.15798 21.3146 9.0625 21.0841 9.0625 20.8438C9.0625 20.6034 9.15798 20.3729 9.32793 20.2029C9.49789 20.033 9.7284 19.9375 9.96875 19.9375H19.0312C19.2716 19.9375 19.5021 20.033 19.6721 20.2029C19.842 20.3729 19.9375 20.6034 19.9375 20.8438C19.9375 21.0841 19.842 21.3146 19.6721 21.4846C19.5021 21.6545 19.2716 21.75 19.0312 21.75ZM19.0312 17.2188H9.96875C9.7284 17.2188 9.49789 17.1233 9.32793 16.9533C9.15798 16.7834 9.0625 16.5529 9.0625 16.3125C9.0625 16.0721 9.15798 15.8416 9.32793 15.6717C9.49789 15.5017 9.7284 15.4062 9.96875 15.4062H19.0312C19.2716 15.4062 19.5021 15.5017 19.6721 15.6717C19.842 15.8416 19.9375 16.0721 19.9375 16.3125C19.9375 16.5529 19.842 16.7834 19.6721 16.9533C19.5021 17.1233 19.2716 17.2188 19.0312 17.2188Z" fill="#6888E4"/>
<path d="M23.7449 10.6818L15.5994 2.53636C15.5836 2.52061 15.5634 2.5099 15.5415 2.50557C15.5196 2.50124 15.4969 2.50348 15.4762 2.51201C15.4556 2.52055 15.4379 2.535 15.4255 2.55354C15.413 2.57208 15.4063 2.59389 15.4062 2.61622V9.96874C15.4062 10.2091 15.5017 10.4396 15.6717 10.6096C15.8416 10.7795 16.0721 10.875 16.3125 10.875H23.665C23.6874 10.8749 23.7092 10.8682 23.7277 10.8558C23.7462 10.8433 23.7607 10.8256 23.7692 10.805C23.7778 10.7844 23.78 10.7617 23.7757 10.7397C23.7713 10.7178 23.7606 10.6977 23.7449 10.6818Z" fill="#6888E4"/>
</g>
<defs>
<clipPath id="clip0_10_135">
<rect width="29" height="29" fill="white"/>
</clipPath>
</defs>
</svg>
