<svg width="29" height="29" viewBox="0 0 29 29" fill="none" xmlns="http://www.w3.org/2000/svg">
<path d="M14.4999 18.7291C13.3783 18.7291 12.3026 18.2836 11.5095 17.4904C10.7163 16.6973 10.2708 15.6216 10.2708 14.5C10.2708 13.3783 10.7163 12.3026 11.5095 11.5095C12.3026 10.7164 13.3783 10.2708 14.4999 10.2708C15.6216 10.2708 16.6973 10.7164 17.4904 11.5095C18.2835 12.3026 18.7291 13.3783 18.7291 14.5C18.7291 15.6216 18.2835 16.6973 17.4904 17.4904C16.6973 18.2836 15.6216 18.7291 14.4999 18.7291ZM23.4778 15.672C23.5262 15.2854 23.5624 14.8987 23.5624 14.5C23.5624 14.1012 23.5262 13.7025 23.4778 13.2916L26.0274 11.322C26.257 11.1408 26.3174 10.8145 26.1724 10.5487L23.7558 6.36788C23.6108 6.10205 23.2845 5.9933 23.0187 6.10205L20.0099 7.31038C19.3816 6.83913 18.7291 6.4283 17.9678 6.12621L17.5208 2.92413C17.4962 2.78181 17.4221 2.65277 17.3115 2.55988C17.2009 2.46699 17.061 2.41624 16.9166 2.41663H12.0833C11.7812 2.41663 11.5274 2.63413 11.4791 2.92413L11.032 6.12621C10.2708 6.4283 9.61826 6.83913 8.98993 7.31038L5.98118 6.10205C5.71534 5.9933 5.3891 6.10205 5.2441 6.36788L2.82743 10.5487C2.67034 10.8145 2.74284 11.1408 2.97243 11.322L5.52201 13.2916C5.47368 13.7025 5.43743 14.1012 5.43743 14.5C5.43743 14.8987 5.47368 15.2854 5.52201 15.672L2.97243 17.6779C2.74284 17.8591 2.67034 18.1854 2.82743 18.4512L5.2441 22.632C5.3891 22.8979 5.71534 22.9945 5.98118 22.8979L8.98993 21.6775C9.61826 22.1608 10.2708 22.5716 11.032 22.8737L11.4791 26.0758C11.5274 26.3658 11.7812 26.5833 12.0833 26.5833H16.9166C17.2187 26.5833 17.4724 26.3658 17.5208 26.0758L17.9678 22.8737C18.7291 22.5595 19.3816 22.1608 20.0099 21.6775L23.0187 22.8979C23.2845 22.9945 23.6108 22.8979 23.7558 22.632L26.1724 18.4512C26.3174 18.1854 26.257 17.8591 26.0274 17.6779L23.4778 15.672Z" fill="#6888E4"/>
</svg>
