<svg width="47" height="50" viewBox="0 0 47 50" fill="none" xmlns="http://www.w3.org/2000/svg">
<g clip-path="url(#clip0_10_110)">
<path d="M23.0951 24.7399C20.643 25.6565 17.9272 25.5615 15.5451 24.4757C13.163 23.3899 11.3098 21.4024 10.3932 18.9502C9.47656 16.4981 9.57159 13.7822 10.6574 11.4002C11.7431 9.01808 13.7307 7.16489 16.1829 6.24827C18.635 5.33164 21.3508 5.42667 23.7329 6.51245C26.115 7.59822 27.9682 9.5858 28.8848 12.0379C29.8014 14.4901 29.7064 17.2059 28.6206 19.588C27.5349 21.9701 25.5473 23.8233 23.0951 24.7399ZM24.8054 32.5967L22.6248 30.8597C21.8736 30.2596 22.0653 29.0765 22.961 28.7417L25.8142 27.6752C26.7099 27.3403 27.6333 28.1148 27.4572 29.0533L26.9507 31.7947L32.7087 39.8425L31.3426 28.2595C31.2684 27.6204 31.6887 27.027 32.3305 26.9599C37.8692 26.3385 43.3228 29.5194 45.3587 34.9657C45.8177 36.1937 45.1908 37.5559 43.97 38.0122L34.4497 41.571C34.2981 41.6277 34.15 41.6501 34.0011 41.6481L34.0525 41.7195L25.9624 44.7436L25.9543 44.656C25.8432 44.7552 25.7096 44.8381 25.5651 44.8921L16.0448 48.4508C14.824 48.9072 13.4546 48.283 12.9983 47.0622C10.9597 41.6086 12.9967 35.6277 17.5805 32.4736C18.1116 32.1104 18.8181 32.2826 19.1786 32.8065L25.7455 42.4454L24.8126 32.594L24.8054 32.5967Z" fill="white"/>
</g>
<defs>
<clipPath id="clip0_10_110">
<rect width="34.5524" height="39.4827" fill="white" transform="translate(0 12.2975) rotate(-20.496)"/>
</clipPath>
</defs>
</svg>
