<svg width="39" height="40" viewBox="0 0 39 40" fill="none" xmlns="http://www.w3.org/2000/svg">
<path opacity="0.2" d="M19.4999 5.375C16.5406 5.37414 13.6507 6.27103 11.2118 7.94721C8.77301 9.62339 6.90006 12 5.84039 14.7631C4.78072 17.5261 4.58419 20.5456 5.27677 23.4228C5.96935 26.2999 7.51844 28.8992 9.71941 30.8773C10.6365 29.0714 12.0358 27.5546 13.7621 26.4951C15.4884 25.4357 17.4744 24.8749 19.4999 24.875C18.2947 24.875 17.1165 24.5176 16.1144 23.848C15.1123 23.1784 14.3312 22.2267 13.87 21.1132C13.4088 19.9997 13.2881 18.7745 13.5232 17.5924C13.7584 16.4103 14.3387 15.3245 15.1909 14.4723C16.0432 13.6201 17.129 13.0397 18.3111 12.8046C19.4931 12.5695 20.7184 12.6901 21.8319 13.1514C22.9453 13.6126 23.8971 14.3936 24.5667 15.3957C25.2362 16.3979 25.5936 17.576 25.5936 18.7813C25.5936 20.3974 24.9516 21.9474 23.8088 23.0902C22.666 24.233 21.116 24.875 19.4999 24.875C21.5254 24.8749 23.5113 25.4357 25.2377 26.4951C26.964 27.5546 28.3633 29.0714 29.2804 30.8773C31.4813 28.8992 33.0304 26.2999 33.723 23.4228C34.4156 20.5456 34.219 17.5261 33.1594 14.7631C32.0997 12 30.2268 9.62339 27.7879 7.94721C25.3491 6.27103 22.4592 5.37414 19.4999 5.375Z" fill="black"/>
<path d="M35.3438 19.9999C35.3446 17.3644 34.688 14.7703 33.4333 12.4526C32.1787 10.1348 30.3657 8.16669 28.1586 6.72638C25.9515 5.28607 23.4199 4.4191 20.7932 4.20399C18.1664 3.98888 15.5275 4.43242 13.1155 5.49445C10.7034 6.55648 8.59439 8.20344 6.9794 10.2862C5.36441 12.3689 4.29449 14.8216 3.86653 17.4221C3.43857 20.0227 3.6661 22.6889 4.5285 25.1793C5.3909 27.6697 6.86094 29.9057 8.80547 31.6847L9.00352 31.8675C11.9 34.4292 15.6332 35.8433 19.5 35.8433C23.3668 35.8433 27.1 34.4292 29.9965 31.8675L30.1945 31.6847C31.8187 30.2026 33.1156 28.3978 34.0023 26.3857C34.889 24.3737 35.3459 22.1987 35.3438 19.9999ZM6.09375 19.9999C6.09295 17.8286 6.61955 15.6896 7.62826 13.7668C8.63698 11.8441 10.0976 10.1951 11.8846 8.96169C13.6715 7.72829 15.7314 6.94738 17.8869 6.68611C20.0424 6.42485 22.2291 6.69105 24.259 7.46182C26.2889 8.2326 28.1012 9.48488 29.5401 11.111C30.9789 12.7371 32.0013 14.6883 32.5192 16.797C33.0372 18.9056 33.0352 21.1084 32.5135 23.2161C31.9918 25.3238 30.966 27.2732 29.5242 28.8968C28.1653 26.9261 26.2509 25.4041 24.0246 24.5245C25.2187 23.584 26.09 22.2948 26.5175 20.8361C26.9449 19.3774 26.9071 17.8218 26.4094 16.3856C25.9117 14.9494 24.9789 13.704 23.7405 12.8225C22.5022 11.9411 21.02 11.4674 19.5 11.4674C17.98 11.4674 16.4978 11.9411 15.2595 12.8225C14.0211 13.704 13.0883 14.9494 12.5906 16.3856C12.0929 17.8218 12.0551 19.3774 12.4825 20.8361C12.91 22.2948 13.7813 23.584 14.9754 24.5245C12.7491 25.4041 10.8347 26.9261 9.47578 28.8968C7.29325 26.4476 6.08927 23.2804 6.09375 19.9999ZM14.625 18.7812C14.625 17.817 14.9109 16.8744 15.4466 16.0728C15.9823 15.2711 16.7436 14.6462 17.6344 14.2772C18.5252 13.9083 19.5054 13.8117 20.4511 13.9998C21.3967 14.1879 22.2654 14.6522 22.9471 15.334C23.6289 16.0158 24.0932 16.8844 24.2813 17.8301C24.4694 18.7758 24.3729 19.756 24.0039 20.6467C23.6349 21.5375 23.0101 22.2989 22.2084 22.8346C21.4067 23.3702 20.4642 23.6562 19.5 23.6562C18.2083 23.6521 16.9707 23.1372 16.0573 22.2239C15.1439 21.3105 14.629 20.0729 14.625 18.7812ZM11.2887 30.5878C12.1706 29.2102 13.385 28.0767 14.8199 27.2915C16.2549 26.5064 17.8643 26.0949 19.5 26.0949C21.1357 26.0949 22.7451 26.5064 24.1801 27.2915C25.615 28.0767 26.8294 29.2102 27.7113 30.5878C25.3635 32.4136 22.4742 33.4049 19.5 33.4049C16.5258 33.4049 13.6365 32.4136 11.2887 30.5878Z" fill="black"/>
</svg>
